<?xml version="1.0" encoding="UTF-8" standalone="no"?><svg xmlns="http://www.w3.org/2000/svg" xmlns:xlink="http://www.w3.org/1999/xlink" contentScriptType="application/ecmascript" contentStyleType="text/css" height="586px" preserveAspectRatio="none" style="width:1700px;height:586px;" version="1.1" viewBox="0 0 1700 586" width="1700px" zoomAndPan="magnify"><defs><linearGradient id="glkq9iiikmjc20" x1="0%" x2="100%" y1="0%" y2="100%"><stop offset="0%" stop-color="#FFFFF0"/><stop offset="100%" stop-color="#F0FFFF"/></linearGradient><filter height="300%" id="flkq9iiikmjc2" width="300%" x="-1" y="-1"><feGaussianBlur result="blurOut" stdDeviation="2.0"/><feColorMatrix in="blurOut" result="blurOut2" type="matrix" values="0 0 0 0 0 0 0 0 0 0 0 0 0 0 0 0 0 0 .4 0"/><feOffset dx="4.0" dy="4.0" in="blurOut2" result="blurOut3"/><feBlend in="SourceGraphic" in2="blurOut3" mode="normal"/></filter></defs><g><rect fill="url(#glkq9iiikmjc20)" height="586" style="stroke: none; stroke-width: 1.0;" width="1700" x="0" y="0"/><!--MD5=[af30b9106c3a5f1ee61632185c10bbbf]
class /docs or /project--><rect fill="#FEFECE" filter="url(#flkq9iiikmjc2)" height="48" id="/docs or /project" style="stroke: #A80036; stroke-width: 1.5;" width="135" x="1199" y="8"/><ellipse cx="1214" cy="24" fill="#ADD1B2" rx="11" ry="11" style="stroke: #A80036; stroke-width: 1.0;"/><path d="M1216.9688,29.6406 Q1216.3906,29.9375 1215.75,30.0781 Q1215.1094,30.2344 1214.4063,30.2344 Q1211.9063,30.2344 1210.5781,28.5938 Q1209.2656,26.9375 1209.2656,23.8125 Q1209.2656,20.6875 1210.5781,19.0313 Q1211.9063,17.375 1214.4063,17.375 Q1215.1094,17.375 1215.75,17.5313 Q1216.4063,17.6875 1216.9688,17.9844 L1216.9688,20.7031 Q1216.3438,20.125 1215.75,19.8594 Q1215.1563,19.5781 1214.5313,19.5781 Q1213.1875,19.5781 1212.5,20.6563 Q1211.8125,21.7188 1211.8125,23.8125 Q1211.8125,25.9063 1212.5,26.9844 Q1213.1875,28.0469 1214.5313,28.0469 Q1215.1563,28.0469 1215.75,27.7813 Q1216.3438,27.5 1216.9688,26.9219 L1216.9688,29.6406 Z "/><text fill="#000000" font-family="sans-serif" font-size="12" lengthAdjust="spacingAndGlyphs" textLength="103" x="1228" y="28.1543">/docs or /project</text><line style="stroke: #A80036; stroke-width: 1.5;" x1="1200" x2="1333" y1="40" y2="40"/><line style="stroke: #A80036; stroke-width: 1.5;" x1="1200" x2="1333" y1="48" y2="48"/><!--MD5=[d2af5bb11910ccc01feedccf230193ff]
class baseof--><rect fill="#FEFECE" filter="url(#flkq9iiikmjc2)" height="48" id="baseof" style="stroke: #A80036; stroke-width: 1.5;" width="75" x="616" y="117"/><ellipse cx="631" cy="133" fill="#ADD1B2" rx="11" ry="11" style="stroke: #A80036; stroke-width: 1.0;"/><path d="M633.9688,138.6406 Q633.3906,138.9375 632.75,139.0781 Q632.1094,139.2344 631.4063,139.2344 Q628.9063,139.2344 627.5781,137.5938 Q626.2656,135.9375 626.2656,132.8125 Q626.2656,129.6875 627.5781,128.0313 Q628.9063,126.375 631.4063,126.375 Q632.1094,126.375 632.75,126.5313 Q633.4063,126.6875 633.9688,126.9844 L633.9688,129.7031 Q633.3438,129.125 632.75,128.8594 Q632.1563,128.5781 631.5313,128.5781 Q630.1875,128.5781 629.5,129.6563 Q628.8125,130.7188 628.8125,132.8125 Q628.8125,134.9063 629.5,135.9844 Q630.1875,137.0469 631.5313,137.0469 Q632.1563,137.0469 632.75,136.7813 Q633.3438,136.5 633.9688,135.9219 L633.9688,138.6406 Z "/><text fill="#000000" font-family="sans-serif" font-size="12" lengthAdjust="spacingAndGlyphs" textLength="43" x="645" y="137.1543">baseof</text><line style="stroke: #A80036; stroke-width: 1.5;" x1="617" x2="690" y1="149" y2="149"/><line style="stroke: #A80036; stroke-width: 1.5;" x1="617" x2="690" y1="157" y2="157"/><!--MD5=[ce0bdc9c9d7363fc59409c686ba93793]
class list--><rect fill="#FEFECE" filter="url(#flkq9iiikmjc2)" height="48" id="list" style="stroke: #A80036; stroke-width: 1.5;" width="50" x="1241.5" y="117"/><ellipse cx="1256.5" cy="133" fill="#ADD1B2" rx="11" ry="11" style="stroke: #A80036; stroke-width: 1.0;"/><path d="M1259.4688,138.6406 Q1258.8906,138.9375 1258.25,139.0781 Q1257.6094,139.2344 1256.9063,139.2344 Q1254.4063,139.2344 1253.0781,137.5938 Q1251.7656,135.9375 1251.7656,132.8125 Q1251.7656,129.6875 1253.0781,128.0313 Q1254.4063,126.375 1256.9063,126.375 Q1257.6094,126.375 1258.25,126.5313 Q1258.9063,126.6875 1259.4688,126.9844 L1259.4688,129.7031 Q1258.8438,129.125 1258.25,128.8594 Q1257.6563,128.5781 1257.0313,128.5781 Q1255.6875,128.5781 1255,129.6563 Q1254.3125,130.7188 1254.3125,132.8125 Q1254.3125,134.9063 1255,135.9844 Q1255.6875,137.0469 1257.0313,137.0469 Q1257.6563,137.0469 1258.25,136.7813 Q1258.8438,136.5 1259.4688,135.9219 L1259.4688,138.6406 Z "/><text fill="#000000" font-family="sans-serif" font-size="12" lengthAdjust="spacingAndGlyphs" textLength="18" x="1270.5" y="137.1543">list</text><line style="stroke: #A80036; stroke-width: 1.5;" x1="1242.5" x2="1290.5" y1="149" y2="149"/><line style="stroke: #A80036; stroke-width: 1.5;" x1="1242.5" x2="1290.5" y1="157" y2="157"/><!--MD5=[dde97bac53692ba13cd32ee3d8faf175]
class single--><rect fill="#FEFECE" filter="url(#flkq9iiikmjc2)" height="48" id="single" style="stroke: #A80036; stroke-width: 1.5;" width="69" x="1327" y="117"/><ellipse cx="1342" cy="133" fill="#ADD1B2" rx="11" ry="11" style="stroke: #A80036; stroke-width: 1.0;"/><path d="M1344.9688,138.6406 Q1344.3906,138.9375 1343.75,139.0781 Q1343.1094,139.2344 1342.4063,139.2344 Q1339.9063,139.2344 1338.5781,137.5938 Q1337.2656,135.9375 1337.2656,132.8125 Q1337.2656,129.6875 1338.5781,128.0313 Q1339.9063,126.375 1342.4063,126.375 Q1343.1094,126.375 1343.75,126.5313 Q1344.4063,126.6875 1344.9688,126.9844 L1344.9688,129.7031 Q1344.3438,129.125 1343.75,128.8594 Q1343.1563,128.5781 1342.5313,128.5781 Q1341.1875,128.5781 1340.5,129.6563 Q1339.8125,130.7188 1339.8125,132.8125 Q1339.8125,134.9063 1340.5,135.9844 Q1341.1875,137.0469 1342.5313,137.0469 Q1343.1563,137.0469 1343.75,136.7813 Q1344.3438,136.5 1344.9688,135.9219 L1344.9688,138.6406 Z "/><text fill="#000000" font-family="sans-serif" font-size="12" lengthAdjust="spacingAndGlyphs" textLength="37" x="1356" y="137.1543">single</text><line style="stroke: #A80036; stroke-width: 1.5;" x1="1328" x2="1395" y1="149" y2="149"/><line style="stroke: #A80036; stroke-width: 1.5;" x1="1328" x2="1395" y1="157" y2="157"/><!--MD5=[4290b81bb3ff39213a5faeeb083fcc17]
class head--><rect fill="#FEFECE" filter="url(#flkq9iiikmjc2)" height="48" id="head" style="stroke: #A80036; stroke-width: 1.5;" width="64" x="117.5" y="309"/><ellipse cx="132.5" cy="325" fill="#ADD1B2" rx="11" ry="11" style="stroke: #A80036; stroke-width: 1.0;"/><path d="M135.4688,330.6406 Q134.8906,330.9375 134.25,331.0781 Q133.6094,331.2344 132.9063,331.2344 Q130.4063,331.2344 129.0781,329.5938 Q127.7656,327.9375 127.7656,324.8125 Q127.7656,321.6875 129.0781,320.0313 Q130.4063,318.375 132.9063,318.375 Q133.6094,318.375 134.25,318.5313 Q134.9063,318.6875 135.4688,318.9844 L135.4688,321.7031 Q134.8438,321.125 134.25,320.8594 Q133.6563,320.5781 133.0313,320.5781 Q131.6875,320.5781 131,321.6563 Q130.3125,322.7188 130.3125,324.8125 Q130.3125,326.9063 131,327.9844 Q131.6875,329.0469 133.0313,329.0469 Q133.6563,329.0469 134.25,328.7813 Q134.8438,328.5 135.4688,327.9219 L135.4688,330.6406 Z "/><text fill="#000000" font-family="sans-serif" font-size="12" lengthAdjust="spacingAndGlyphs" textLength="32" x="146.5" y="329.1543">head</text><line style="stroke: #A80036; stroke-width: 1.5;" x1="118.5" x2="180.5" y1="341" y2="341"/><line style="stroke: #A80036; stroke-width: 1.5;" x1="118.5" x2="180.5" y1="349" y2="349"/><!--MD5=[0f70632d1460ed7592bb7b1ec1f9ff44]
class navbar--><rect fill="#FEFECE" filter="url(#flkq9iiikmjc2)" height="48" id="navbar" style="stroke: #A80036; stroke-width: 1.5;" width="75" x="217" y="309"/><ellipse cx="232" cy="325" fill="#ADD1B2" rx="11" ry="11" style="stroke: #A80036; stroke-width: 1.0;"/><path d="M234.9688,330.6406 Q234.3906,330.9375 233.75,331.0781 Q233.1094,331.2344 232.4063,331.2344 Q229.9063,331.2344 228.5781,329.5938 Q227.2656,327.9375 227.2656,324.8125 Q227.2656,321.6875 228.5781,320.0313 Q229.9063,318.375 232.4063,318.375 Q233.1094,318.375 233.75,318.5313 Q234.4063,318.6875 234.9688,318.9844 L234.9688,321.7031 Q234.3438,321.125 233.75,320.8594 Q233.1563,320.5781 232.5313,320.5781 Q231.1875,320.5781 230.5,321.6563 Q229.8125,322.7188 229.8125,324.8125 Q229.8125,326.9063 230.5,327.9844 Q231.1875,329.0469 232.5313,329.0469 Q233.1563,329.0469 233.75,328.7813 Q234.3438,328.5 234.9688,327.9219 L234.9688,330.6406 Z "/><text fill="#000000" font-family="sans-serif" font-size="12" lengthAdjust="spacingAndGlyphs" textLength="43" x="246" y="329.1543">navbar</text><line style="stroke: #A80036; stroke-width: 1.5;" x1="218" x2="291" y1="341" y2="341"/><line style="stroke: #A80036; stroke-width: 1.5;" x1="218" x2="291" y1="349" y2="349"/><!--MD5=[20d944064ec8cbcfb6e7e92d1c50612c]
class sidebar--><rect fill="#FEFECE" filter="url(#flkq9iiikmjc2)" height="48" id="sidebar" style="stroke: #A80036; stroke-width: 1.5;" width="79" x="327" y="309"/><ellipse cx="342" cy="325" fill="#ADD1B2" rx="11" ry="11" style="stroke: #A80036; stroke-width: 1.0;"/><path d="M344.9688,330.6406 Q344.3906,330.9375 343.75,331.0781 Q343.1094,331.2344 342.4063,331.2344 Q339.9063,331.2344 338.5781,329.5938 Q337.2656,327.9375 337.2656,324.8125 Q337.2656,321.6875 338.5781,320.0313 Q339.9063,318.375 342.4063,318.375 Q343.1094,318.375 343.75,318.5313 Q344.4063,318.6875 344.9688,318.9844 L344.9688,321.7031 Q344.3438,321.125 343.75,320.8594 Q343.1563,320.5781 342.5313,320.5781 Q341.1875,320.5781 340.5,321.6563 Q339.8125,322.7188 339.8125,324.8125 Q339.8125,326.9063 340.5,327.9844 Q341.1875,329.0469 342.5313,329.0469 Q343.1563,329.0469 343.75,328.7813 Q344.3438,328.5 344.9688,327.9219 L344.9688,330.6406 Z "/><text fill="#000000" font-family="sans-serif" font-size="12" lengthAdjust="spacingAndGlyphs" textLength="47" x="356" y="329.1543">sidebar</text><line style="stroke: #A80036; stroke-width: 1.5;" x1="328" x2="405" y1="341" y2="341"/><line style="stroke: #A80036; stroke-width: 1.5;" x1="328" x2="405" y1="349" y2="349"/><!--MD5=[fa8c5b5fe591c3278e58d90b622018f1]
class toc--><rect fill="#FEFECE" filter="url(#flkq9iiikmjc2)" height="48" id="toc" style="stroke: #A80036; stroke-width: 1.5;" width="52" x="457.5" y="309"/><ellipse cx="472.5" cy="325" fill="#ADD1B2" rx="11" ry="11" style="stroke: #A80036; stroke-width: 1.0;"/><path d="M475.4688,330.6406 Q474.8906,330.9375 474.25,331.0781 Q473.6094,331.2344 472.9063,331.2344 Q470.4063,331.2344 469.0781,329.5938 Q467.7656,327.9375 467.7656,324.8125 Q467.7656,321.6875 469.0781,320.0313 Q470.4063,318.375 472.9063,318.375 Q473.6094,318.375 474.25,318.5313 Q474.9063,318.6875 475.4688,318.9844 L475.4688,321.7031 Q474.8438,321.125 474.25,320.8594 Q473.6563,320.5781 473.0313,320.5781 Q471.6875,320.5781 471,321.6563 Q470.3125,322.7188 470.3125,324.8125 Q470.3125,326.9063 471,327.9844 Q471.6875,329.0469 473.0313,329.0469 Q473.6563,329.0469 474.25,328.7813 Q474.8438,328.5 475.4688,327.9219 L475.4688,330.6406 Z "/><text fill="#000000" font-family="sans-serif" font-size="12" lengthAdjust="spacingAndGlyphs" textLength="20" x="486.5" y="329.1543">toc</text><line style="stroke: #A80036; stroke-width: 1.5;" x1="458.5" x2="508.5" y1="341" y2="341"/><line style="stroke: #A80036; stroke-width: 1.5;" x1="458.5" x2="508.5" y1="349" y2="349"/><!--MD5=[aa01a65b5f84a2f1c9cc67c7975699fe]
class version-banner--><rect fill="#FEFECE" filter="url(#flkq9iiikmjc2)" height="48" id="version-banner" style="stroke: #A80036; stroke-width: 1.5;" width="126" x="544.5" y="309"/><ellipse cx="559.5" cy="325" fill="#ADD1B2" rx="11" ry="11" style="stroke: #A80036; stroke-width: 1.0;"/><path d="M562.4688,330.6406 Q561.8906,330.9375 561.25,331.0781 Q560.6094,331.2344 559.9063,331.2344 Q557.4063,331.2344 556.0781,329.5938 Q554.7656,327.9375 554.7656,324.8125 Q554.7656,321.6875 556.0781,320.0313 Q557.4063,318.375 559.9063,318.375 Q560.6094,318.375 561.25,318.5313 Q561.9063,318.6875 562.4688,318.9844 L562.4688,321.7031 Q561.8438,321.125 561.25,320.8594 Q560.6563,320.5781 560.0313,320.5781 Q558.6875,320.5781 558,321.6563 Q557.3125,322.7188 557.3125,324.8125 Q557.3125,326.9063 558,327.9844 Q558.6875,329.0469 560.0313,329.0469 Q560.6563,329.0469 561.25,328.7813 Q561.8438,328.5 562.4688,327.9219 L562.4688,330.6406 Z "/><text fill="#000000" font-family="sans-serif" font-size="12" lengthAdjust="spacingAndGlyphs" textLength="94" x="573.5" y="329.1543">version-banner</text><line style="stroke: #A80036; stroke-width: 1.5;" x1="545.5" x2="669.5" y1="341" y2="341"/><line style="stroke: #A80036; stroke-width: 1.5;" x1="545.5" x2="669.5" y1="349" y2="349"/><!--MD5=[7fd87099c4fb66f752e35e62f65061b3]
class breadcrumb--><rect fill="#FEFECE" filter="url(#flkq9iiikmjc2)" height="48" id="breadcrumb" style="stroke: #A80036; stroke-width: 1.5;" width="108" x="705.5" y="309"/><ellipse cx="720.5" cy="325" fill="#ADD1B2" rx="11" ry="11" style="stroke: #A80036; stroke-width: 1.0;"/><path d="M723.4688,330.6406 Q722.8906,330.9375 722.25,331.0781 Q721.6094,331.2344 720.9063,331.2344 Q718.4063,331.2344 717.0781,329.5938 Q715.7656,327.9375 715.7656,324.8125 Q715.7656,321.6875 717.0781,320.0313 Q718.4063,318.375 720.9063,318.375 Q721.6094,318.375 722.25,318.5313 Q722.9063,318.6875 723.4688,318.9844 L723.4688,321.7031 Q722.8438,321.125 722.25,320.8594 Q721.6563,320.5781 721.0313,320.5781 Q719.6875,320.5781 719,321.6563 Q718.3125,322.7188 718.3125,324.8125 Q718.3125,326.9063 719,327.9844 Q719.6875,329.0469 721.0313,329.0469 Q721.6563,329.0469 722.25,328.7813 Q722.8438,328.5 723.4688,327.9219 L723.4688,330.6406 Z "/><text fill="#000000" font-family="sans-serif" font-size="12" lengthAdjust="spacingAndGlyphs" textLength="76" x="734.5" y="329.1543">breadcrumb</text><line style="stroke: #A80036; stroke-width: 1.5;" x1="706.5" x2="812.5" y1="341" y2="341"/><line style="stroke: #A80036; stroke-width: 1.5;" x1="706.5" x2="812.5" y1="349" y2="349"/><!--MD5=[24b6359ebb2295091f42b9aacfa19661]
class footer--><rect fill="#FEFECE" filter="url(#flkq9iiikmjc2)" height="48" id="footer" style="stroke: #A80036; stroke-width: 1.5;" width="70" x="848.5" y="309"/><ellipse cx="863.5" cy="325" fill="#ADD1B2" rx="11" ry="11" style="stroke: #A80036; stroke-width: 1.0;"/><path d="M866.4688,330.6406 Q865.8906,330.9375 865.25,331.0781 Q864.6094,331.2344 863.9063,331.2344 Q861.4063,331.2344 860.0781,329.5938 Q858.7656,327.9375 858.7656,324.8125 Q858.7656,321.6875 860.0781,320.0313 Q861.4063,318.375 863.9063,318.375 Q864.6094,318.375 865.25,318.5313 Q865.9063,318.6875 866.4688,318.9844 L866.4688,321.7031 Q865.8438,321.125 865.25,320.8594 Q864.6563,320.5781 864.0313,320.5781 Q862.6875,320.5781 862,321.6563 Q861.3125,322.7188 861.3125,324.8125 Q861.3125,326.9063 862,327.9844 Q862.6875,329.0469 864.0313,329.0469 Q864.6563,329.0469 865.25,328.7813 Q865.8438,328.5 866.4688,327.9219 L866.4688,330.6406 Z "/><text fill="#000000" font-family="sans-serif" font-size="12" lengthAdjust="spacingAndGlyphs" textLength="38" x="877.5" y="329.1543">footer</text><line style="stroke: #A80036; stroke-width: 1.5;" x1="849.5" x2="917.5" y1="341" y2="341"/><line style="stroke: #A80036; stroke-width: 1.5;" x1="849.5" x2="917.5" y1="349" y2="349"/><!--MD5=[d289ef859d5d3fdef3f0d14eea3d3a6c]
class scripts--><rect fill="#FEFECE" filter="url(#flkq9iiikmjc2)" height="48" id="scripts" style="stroke: #A80036; stroke-width: 1.5;" width="74" x="953.5" y="309"/><ellipse cx="968.5" cy="325" fill="#ADD1B2" rx="11" ry="11" style="stroke: #A80036; stroke-width: 1.0;"/><path d="M971.4688,330.6406 Q970.8906,330.9375 970.25,331.0781 Q969.6094,331.2344 968.9063,331.2344 Q966.4063,331.2344 965.0781,329.5938 Q963.7656,327.9375 963.7656,324.8125 Q963.7656,321.6875 965.0781,320.0313 Q966.4063,318.375 968.9063,318.375 Q969.6094,318.375 970.25,318.5313 Q970.9063,318.6875 971.4688,318.9844 L971.4688,321.7031 Q970.8438,321.125 970.25,320.8594 Q969.6563,320.5781 969.0313,320.5781 Q967.6875,320.5781 967,321.6563 Q966.3125,322.7188 966.3125,324.8125 Q966.3125,326.9063 967,327.9844 Q967.6875,329.0469 969.0313,329.0469 Q969.6563,329.0469 970.25,328.7813 Q970.8438,328.5 971.4688,327.9219 L971.4688,330.6406 Z "/><text fill="#000000" font-family="sans-serif" font-size="12" lengthAdjust="spacingAndGlyphs" textLength="42" x="982.5" y="329.1543">scripts</text><line style="stroke: #A80036; stroke-width: 1.5;" x1="954.5" x2="1026.5" y1="341" y2="341"/><line style="stroke: #A80036; stroke-width: 1.5;" x1="954.5" x2="1026.5" y1="349" y2="349"/><!--MD5=[ce4e7167f95a4eeb2f10e1172a3228c9]
class sidebar-tree--><rect fill="#FEFECE" filter="url(#flkq9iiikmjc2)" height="48" id="sidebar-tree" style="stroke: #A80036; stroke-width: 1.5;" width="109" x="178" y="418"/><ellipse cx="193" cy="434" fill="#ADD1B2" rx="11" ry="11" style="stroke: #A80036; stroke-width: 1.0;"/><path d="M195.9688,439.6406 Q195.3906,439.9375 194.75,440.0781 Q194.1094,440.2344 193.4063,440.2344 Q190.9063,440.2344 189.5781,438.5938 Q188.2656,436.9375 188.2656,433.8125 Q188.2656,430.6875 189.5781,429.0313 Q190.9063,427.375 193.4063,427.375 Q194.1094,427.375 194.75,427.5313 Q195.4063,427.6875 195.9688,427.9844 L195.9688,430.7031 Q195.3438,430.125 194.75,429.8594 Q194.1563,429.5781 193.5313,429.5781 Q192.1875,429.5781 191.5,430.6563 Q190.8125,431.7188 190.8125,433.8125 Q190.8125,435.9063 191.5,436.9844 Q192.1875,438.0469 193.5313,438.0469 Q194.1563,438.0469 194.75,437.7813 Q195.3438,437.5 195.9688,436.9219 L195.9688,439.6406 Z "/><text fill="#000000" font-family="sans-serif" font-size="12" lengthAdjust="spacingAndGlyphs" textLength="77" x="207" y="438.1543">sidebar-tree</text><line style="stroke: #A80036; stroke-width: 1.5;" x1="179" x2="286" y1="450" y2="450"/><line style="stroke: #A80036; stroke-width: 1.5;" x1="179" x2="286" y1="458" y2="458"/><!--MD5=[b448fa7779b8f361403fb2a908d06351]
class search-input--><rect fill="#FEFECE" filter="url(#flkq9iiikmjc2)" height="48" id="search-input" style="stroke: #A80036; stroke-width: 1.5;" width="111" x="6" y="527"/><ellipse cx="21" cy="543" fill="#ADD1B2" rx="11" ry="11" style="stroke: #A80036; stroke-width: 1.0;"/><path d="M23.9688,548.6406 Q23.3906,548.9375 22.75,549.0781 Q22.1094,549.2344 21.4063,549.2344 Q18.9063,549.2344 17.5781,547.5938 Q16.2656,545.9375 16.2656,542.8125 Q16.2656,539.6875 17.5781,538.0313 Q18.9063,536.375 21.4063,536.375 Q22.1094,536.375 22.75,536.5313 Q23.4063,536.6875 23.9688,536.9844 L23.9688,539.7031 Q23.3438,539.125 22.75,538.8594 Q22.1563,538.5781 21.5313,538.5781 Q20.1875,538.5781 19.5,539.6563 Q18.8125,540.7188 18.8125,542.8125 Q18.8125,544.9063 19.5,545.9844 Q20.1875,547.0469 21.5313,547.0469 Q22.1563,547.0469 22.75,546.7813 Q23.3438,546.5 23.9688,545.9219 L23.9688,548.6406 Z "/><text fill="#000000" font-family="sans-serif" font-size="12" lengthAdjust="spacingAndGlyphs" textLength="79" x="35" y="547.1543">search-input</text><line style="stroke: #A80036; stroke-width: 1.5;" x1="7" x2="116" y1="559" y2="559"/><line style="stroke: #A80036; stroke-width: 1.5;" x1="7" x2="116" y1="567" y2="567"/><!--MD5=[043faf876580ba29e7ca158312b5b15b]
class navbar-lang-selector--><rect fill="#FEFECE" filter="url(#flkq9iiikmjc2)" height="48" id="navbar-lang-selector" style="stroke: #A80036; stroke-width: 1.5;" width="161" x="152" y="527"/><ellipse cx="167" cy="543" fill="#ADD1B2" rx="11" ry="11" style="stroke: #A80036; stroke-width: 1.0;"/><path d="M169.9688,548.6406 Q169.3906,548.9375 168.75,549.0781 Q168.1094,549.2344 167.4063,549.2344 Q164.9063,549.2344 163.5781,547.5938 Q162.2656,545.9375 162.2656,542.8125 Q162.2656,539.6875 163.5781,538.0313 Q164.9063,536.375 167.4063,536.375 Q168.1094,536.375 168.75,536.5313 Q169.4063,536.6875 169.9688,536.9844 L169.9688,539.7031 Q169.3438,539.125 168.75,538.8594 Q168.1563,538.5781 167.5313,538.5781 Q166.1875,538.5781 165.5,539.6563 Q164.8125,540.7188 164.8125,542.8125 Q164.8125,544.9063 165.5,545.9844 Q166.1875,547.0469 167.5313,547.0469 Q168.1563,547.0469 168.75,546.7813 Q169.3438,546.5 169.9688,545.9219 L169.9688,548.6406 Z "/><text fill="#000000" font-family="sans-serif" font-size="12" lengthAdjust="spacingAndGlyphs" textLength="129" x="181" y="547.1543">navbar-lang-selector</text><line style="stroke: #A80036; stroke-width: 1.5;" x1="153" x2="312" y1="559" y2="559"/><line style="stroke: #A80036; stroke-width: 1.5;" x1="153" x2="312" y1="567" y2="567"/><!--MD5=[50ad8b35ddfcb59919b8879d3bdc3a3a]
class page-meta-links--><rect fill="#FEFECE" filter="url(#flkq9iiikmjc2)" height="48" id="page-meta-links" style="stroke: #A80036; stroke-width: 1.5;" width="132" x="483.5" y="418"/><ellipse cx="498.5" cy="434" fill="#ADD1B2" rx="11" ry="11" style="stroke: #A80036; stroke-width: 1.0;"/><path d="M501.4688,439.6406 Q500.8906,439.9375 500.25,440.0781 Q499.6094,440.2344 498.9063,440.2344 Q496.4063,440.2344 495.0781,438.5938 Q493.7656,436.9375 493.7656,433.8125 Q493.7656,430.6875 495.0781,429.0313 Q496.4063,427.375 498.9063,427.375 Q499.6094,427.375 500.25,427.5313 Q500.9063,427.6875 501.4688,427.9844 L501.4688,430.7031 Q500.8438,430.125 500.25,429.8594 Q499.6563,429.5781 499.0313,429.5781 Q497.6875,429.5781 497,430.6563 Q496.3125,431.7188 496.3125,433.8125 Q496.3125,435.9063 497,436.9844 Q497.6875,438.0469 499.0313,438.0469 Q499.6563,438.0469 500.25,437.7813 Q500.8438,437.5 501.4688,436.9219 L501.4688,439.6406 Z "/><text fill="#000000" font-family="sans-serif" font-size="12" lengthAdjust="spacingAndGlyphs" textLength="100" x="512.5" y="438.1543">page-meta-links</text><line style="stroke: #A80036; stroke-width: 1.5;" x1="484.5" x2="614.5" y1="450" y2="450"/><line style="stroke: #A80036; stroke-width: 1.5;" x1="484.5" x2="614.5" y1="458" y2="458"/><!--MD5=[781aed84af0ee020d603bf9ca1dd5ff8]
class post_edit_this--><rect fill="#FEFECE" filter="url(#flkq9iiikmjc2)" height="48" id="post_edit_this" style="stroke: #A80036; stroke-width: 1.5;" width="119" x="348" y="527"/><ellipse cx="363" cy="543" fill="#ADD1B2" rx="11" ry="11" style="stroke: #A80036; stroke-width: 1.0;"/><path d="M365.9688,548.6406 Q365.3906,548.9375 364.75,549.0781 Q364.1094,549.2344 363.4063,549.2344 Q360.9063,549.2344 359.5781,547.5938 Q358.2656,545.9375 358.2656,542.8125 Q358.2656,539.6875 359.5781,538.0313 Q360.9063,536.375 363.4063,536.375 Q364.1094,536.375 364.75,536.5313 Q365.4063,536.6875 365.9688,536.9844 L365.9688,539.7031 Q365.3438,539.125 364.75,538.8594 Q364.1563,538.5781 363.5313,538.5781 Q362.1875,538.5781 361.5,539.6563 Q360.8125,540.7188 360.8125,542.8125 Q360.8125,544.9063 361.5,545.9844 Q362.1875,547.0469 363.5313,547.0469 Q364.1563,547.0469 364.75,546.7813 Q365.3438,546.5 365.9688,545.9219 L365.9688,548.6406 Z "/><text fill="#000000" font-family="sans-serif" font-size="12" lengthAdjust="spacingAndGlyphs" textLength="87" x="377" y="547.1543">post_edit_this</text><line style="stroke: #A80036; stroke-width: 1.5;" x1="349" x2="466" y1="559" y2="559"/><line style="stroke: #A80036; stroke-width: 1.5;" x1="349" x2="466" y1="567" y2="567"/><!--MD5=[734c91fb9dba21412a3fe126acc6515c]
class post_create_issue--><rect fill="#FEFECE" filter="url(#flkq9iiikmjc2)" height="48" id="post_create_issue" style="stroke: #A80036; stroke-width: 1.5;" width="146" x="502.5" y="527"/><ellipse cx="517.5" cy="543" fill="#ADD1B2" rx="11" ry="11" style="stroke: #A80036; stroke-width: 1.0;"/><path d="M520.4688,548.6406 Q519.8906,548.9375 519.25,549.0781 Q518.6094,549.2344 517.9063,549.2344 Q515.4063,549.2344 514.0781,547.5938 Q512.7656,545.9375 512.7656,542.8125 Q512.7656,539.6875 514.0781,538.0313 Q515.4063,536.375 517.9063,536.375 Q518.6094,536.375 519.25,536.5313 Q519.9063,536.6875 520.4688,536.9844 L520.4688,539.7031 Q519.8438,539.125 519.25,538.8594 Q518.6563,538.5781 518.0313,538.5781 Q516.6875,538.5781 516,539.6563 Q515.3125,540.7188 515.3125,542.8125 Q515.3125,544.9063 516,545.9844 Q516.6875,547.0469 518.0313,547.0469 Q518.6563,547.0469 519.25,546.7813 Q519.8438,546.5 520.4688,545.9219 L520.4688,548.6406 Z "/><text fill="#000000" font-family="sans-serif" font-size="12" lengthAdjust="spacingAndGlyphs" textLength="114" x="531.5" y="547.1543">post_create_issue</text><line style="stroke: #A80036; stroke-width: 1.5;" x1="503.5" x2="647.5" y1="559" y2="559"/><line style="stroke: #A80036; stroke-width: 1.5;" x1="503.5" x2="647.5" y1="567" y2="567"/><!--MD5=[c737842418fce4a7c4469ed29aace160]
class post_create_project_issue--><rect fill="#FEFECE" filter="url(#flkq9iiikmjc2)" height="48" id="post_create_project_issue" style="stroke: #A80036; stroke-width: 1.5;" width="196" x="683.5" y="527"/><ellipse cx="698.5" cy="543" fill="#ADD1B2" rx="11" ry="11" style="stroke: #A80036; stroke-width: 1.0;"/><path d="M701.4688,548.6406 Q700.8906,548.9375 700.25,549.0781 Q699.6094,549.2344 698.9063,549.2344 Q696.4063,549.2344 695.0781,547.5938 Q693.7656,545.9375 693.7656,542.8125 Q693.7656,539.6875 695.0781,538.0313 Q696.4063,536.375 698.9063,536.375 Q699.6094,536.375 700.25,536.5313 Q700.9063,536.6875 701.4688,536.9844 L701.4688,539.7031 Q700.8438,539.125 700.25,538.8594 Q699.6563,538.5781 699.0313,538.5781 Q697.6875,538.5781 697,539.6563 Q696.3125,540.7188 696.3125,542.8125 Q696.3125,544.9063 697,545.9844 Q697.6875,547.0469 699.0313,547.0469 Q699.6563,547.0469 700.25,546.7813 Q700.8438,546.5 701.4688,545.9219 L701.4688,548.6406 Z "/><text fill="#000000" font-family="sans-serif" font-size="12" lengthAdjust="spacingAndGlyphs" textLength="164" x="712.5" y="547.1543">post_create_project_issue</text><line style="stroke: #A80036; stroke-width: 1.5;" x1="684.5" x2="878.5" y1="559" y2="559"/><line style="stroke: #A80036; stroke-width: 1.5;" x1="684.5" x2="878.5" y1="567" y2="567"/><!--MD5=[e3b44b7d478f19d57d9e15a11df1edaf]
class reading-time--><rect fill="#FEFECE" filter="url(#flkq9iiikmjc2)" height="48" id="reading-time" style="stroke: #A80036; stroke-width: 1.5;" width="111" x="1063" y="309"/><ellipse cx="1078" cy="325" fill="#ADD1B2" rx="11" ry="11" style="stroke: #A80036; stroke-width: 1.0;"/><path d="M1080.9688,330.6406 Q1080.3906,330.9375 1079.75,331.0781 Q1079.1094,331.2344 1078.4063,331.2344 Q1075.9063,331.2344 1074.5781,329.5938 Q1073.2656,327.9375 1073.2656,324.8125 Q1073.2656,321.6875 1074.5781,320.0313 Q1075.9063,318.375 1078.4063,318.375 Q1079.1094,318.375 1079.75,318.5313 Q1080.4063,318.6875 1080.9688,318.9844 L1080.9688,321.7031 Q1080.3438,321.125 1079.75,320.8594 Q1079.1563,320.5781 1078.5313,320.5781 Q1077.1875,320.5781 1076.5,321.6563 Q1075.8125,322.7188 1075.8125,324.8125 Q1075.8125,326.9063 1076.5,327.9844 Q1077.1875,329.0469 1078.5313,329.0469 Q1079.1563,329.0469 1079.75,328.7813 Q1080.3438,328.5 1080.9688,327.9219 L1080.9688,330.6406 Z "/><text fill="#000000" font-family="sans-serif" font-size="12" lengthAdjust="spacingAndGlyphs" textLength="79" x="1092" y="329.1543">reading-time</text><line style="stroke: #A80036; stroke-width: 1.5;" x1="1064" x2="1173" y1="341" y2="341"/><line style="stroke: #A80036; stroke-width: 1.5;" x1="1064" x2="1173" y1="349" y2="349"/><!--MD5=[8b82ff5d49e67230e0b96ce60e092353]
class section-index--><rect fill="#FEFECE" filter="url(#flkq9iiikmjc2)" height="48" id="section-index" style="stroke: #A80036; stroke-width: 1.5;" width="115" x="1209" y="309"/><ellipse cx="1224" cy="325" fill="#ADD1B2" rx="11" ry="11" style="stroke: #A80036; stroke-width: 1.0;"/><path d="M1226.9688,330.6406 Q1226.3906,330.9375 1225.75,331.0781 Q1225.1094,331.2344 1224.4063,331.2344 Q1221.9063,331.2344 1220.5781,329.5938 Q1219.2656,327.9375 1219.2656,324.8125 Q1219.2656,321.6875 1220.5781,320.0313 Q1221.9063,318.375 1224.4063,318.375 Q1225.1094,318.375 1225.75,318.5313 Q1226.4063,318.6875 1226.9688,318.9844 L1226.9688,321.7031 Q1226.3438,321.125 1225.75,320.8594 Q1225.1563,320.5781 1224.5313,320.5781 Q1223.1875,320.5781 1222.5,321.6563 Q1221.8125,322.7188 1221.8125,324.8125 Q1221.8125,326.9063 1222.5,327.9844 Q1223.1875,329.0469 1224.5313,329.0469 Q1225.1563,329.0469 1225.75,328.7813 Q1226.3438,328.5 1226.9688,327.9219 L1226.9688,330.6406 Z "/><text fill="#000000" font-family="sans-serif" font-size="12" lengthAdjust="spacingAndGlyphs" textLength="83" x="1238" y="329.1543">section-index</text><line style="stroke: #A80036; stroke-width: 1.5;" x1="1210" x2="1323" y1="341" y2="341"/><line style="stroke: #A80036; stroke-width: 1.5;" x1="1210" x2="1323" y1="349" y2="349"/><!--MD5=[5fc3e486663e239e02c1eb89216be68c]
class feedback--><rect fill="#FEFECE" filter="url(#flkq9iiikmjc2)" height="48" id="feedback" style="stroke: #A80036; stroke-width: 1.5;" width="90" x="1359.5" y="309"/><ellipse cx="1374.5" cy="325" fill="#ADD1B2" rx="11" ry="11" style="stroke: #A80036; stroke-width: 1.0;"/><path d="M1377.4688,330.6406 Q1376.8906,330.9375 1376.25,331.0781 Q1375.6094,331.2344 1374.9063,331.2344 Q1372.4063,331.2344 1371.0781,329.5938 Q1369.7656,327.9375 1369.7656,324.8125 Q1369.7656,321.6875 1371.0781,320.0313 Q1372.4063,318.375 1374.9063,318.375 Q1375.6094,318.375 1376.25,318.5313 Q1376.9063,318.6875 1377.4688,318.9844 L1377.4688,321.7031 Q1376.8438,321.125 1376.25,320.8594 Q1375.6563,320.5781 1375.0313,320.5781 Q1373.6875,320.5781 1373,321.6563 Q1372.3125,322.7188 1372.3125,324.8125 Q1372.3125,326.9063 1373,327.9844 Q1373.6875,329.0469 1375.0313,329.0469 Q1375.6563,329.0469 1376.25,328.7813 Q1376.8438,328.5 1377.4688,327.9219 L1377.4688,330.6406 Z "/><text fill="#000000" font-family="sans-serif" font-size="12" lengthAdjust="spacingAndGlyphs" textLength="58" x="1388.5" y="329.1543">feedback</text><line style="stroke: #A80036; stroke-width: 1.5;" x1="1360.5" x2="1448.5" y1="341" y2="341"/><line style="stroke: #A80036; stroke-width: 1.5;" x1="1360.5" x2="1448.5" y1="349" y2="349"/><!--MD5=[13585bbac04df19e1fb0647f2ddfc5d9]
class disqus-comment--><rect fill="#FEFECE" filter="url(#flkq9iiikmjc2)" height="48" id="disqus-comment" style="stroke: #A80036; stroke-width: 1.5;" width="135" x="1554" y="309"/><ellipse cx="1569" cy="325" fill="#ADD1B2" rx="11" ry="11" style="stroke: #A80036; stroke-width: 1.0;"/><path d="M1571.9688,330.6406 Q1571.3906,330.9375 1570.75,331.0781 Q1570.1094,331.2344 1569.4063,331.2344 Q1566.9063,331.2344 1565.5781,329.5938 Q1564.2656,327.9375 1564.2656,324.8125 Q1564.2656,321.6875 1565.5781,320.0313 Q1566.9063,318.375 1569.4063,318.375 Q1570.1094,318.375 1570.75,318.5313 Q1571.4063,318.6875 1571.9688,318.9844 L1571.9688,321.7031 Q1571.3438,321.125 1570.75,320.8594 Q1570.1563,320.5781 1569.5313,320.5781 Q1568.1875,320.5781 1567.5,321.6563 Q1566.8125,322.7188 1566.8125,324.8125 Q1566.8125,326.9063 1567.5,327.9844 Q1568.1875,329.0469 1569.5313,329.0469 Q1570.1563,329.0469 1570.75,328.7813 Q1571.3438,328.5 1571.9688,327.9219 L1571.9688,330.6406 Z "/><text fill="#000000" font-family="sans-serif" font-size="12" lengthAdjust="spacingAndGlyphs" textLength="103" x="1583" y="329.1543">disqus-comment</text><line style="stroke: #A80036; stroke-width: 1.5;" x1="1555" x2="1688" y1="341" y2="341"/><line style="stroke: #A80036; stroke-width: 1.5;" x1="1555" x2="1688" y1="349" y2="349"/><!--MD5=[94b4bb7517b685d79b01548f53899c02]
link /docs or /project to baseof--><path d="M1198.8507,44.029 C1069.7875,66.9782 792.2707,116.3246 691.2561,134.2864 " fill="none" id="/docs or /project-baseof" style="stroke: #A80036; stroke-width: 1.0; stroke-dasharray: 7.0,7.0;"/><!--MD5=[cf61ce279cc50d1c263b0f4b381f500b]
link /docs or /project to list--><path d="M1266.5,56.1906 C1266.5,74.2538 1266.5,98.8301 1266.5,116.877 " fill="none" id="/docs or /project-list" style="stroke: #A80036; stroke-width: 1.0; stroke-dasharray: 7.0,7.0;"/><!--MD5=[32b57b66b5b7e967714ff2950dff9412]
link /docs or /project to single--><path d="M1287.5836,56.1906 C1303.3267,74.2538 1324.7464,98.8301 1340.4754,116.877 " fill="none" id="/docs or /project-single" style="stroke: #A80036; stroke-width: 1.0; stroke-dasharray: 7.0,7.0;"/><!--MD5=[0330d67a35234f705e6dad87757e5669]
link baseof to head--><path d="M615.7508,142.7264 C529.867,147.2047 322.6475,161.2805 262.5,195 C214.9613,221.6509 179.3782,276.8834 161.7811,308.801 " fill="none" id="baseof-head" style="stroke: #A80036; stroke-width: 1.0; stroke-dasharray: 7.0,7.0;"/><!--MD5=[58beeb6287309f67fa8374456bad86f9]
link baseof to navbar--><path d="M615.8798,142.9505 C539.6679,147.567 370.3841,161.4027 324.5,195 C286.4604,222.8535 267.6784,277.3737 259.6277,308.9076 " fill="none" id="baseof-navbar" style="stroke: #A80036; stroke-width: 1.0; stroke-dasharray: 7.0,7.0;"/><!--MD5=[b3c8a46980bf11e8fbaf8b50a07045cc]
link baseof to sidebar--><path d="M615.743,141.8139 C541.2558,144.3013 379.6302,154.3654 345.5,195 C318.6134,227.0106 337.4956,278.54 352.6737,308.7494 " fill="none" id="baseof-sidebar" style="stroke: #A80036; stroke-width: 1.0; stroke-dasharray: 7.0,7.0;"/><path d="M350.5,222.5 L350.5,247.5 L457.5,247.5 L457.5,232.5 L447.5,222.5 L350.5,222.5 " fill="#F0E68C" filter="url(#flkq9iiikmjc2)" style="stroke: #A80036; stroke-width: 1.0;"/><path d="M447.5,222.5 L447.5,232.5 L457.5,232.5 L447.5,222.5 " fill="#F0E68C" style="stroke: #A80036; stroke-width: 1.0;"/><text fill="#000000" font-family="sans-serif" font-size="13" lengthAdjust="spacingAndGlyphs" textLength="86" x="356.5" y="239.5669">left hand side</text><!--MD5=[bb5cf2ab5c0505b57c9eaf9106d2a82f]
link baseof to toc--><path d="M615.8775,148.684 C573.5369,158.1525 508.6656,175.4116 493.5,195 C468.1333,227.7645 472.4117,279.0318 477.9015,308.99 " fill="none" id="baseof-toc" style="stroke: #A80036; stroke-width: 1.0; stroke-dasharray: 7.0,7.0;"/><path d="M498.5,222.5 L498.5,247.5 L614.5,247.5 L614.5,232.5 L604.5,222.5 L498.5,222.5 " fill="#F0E68C" filter="url(#flkq9iiikmjc2)" style="stroke: #A80036; stroke-width: 1.0;"/><path d="M604.5,222.5 L604.5,232.5 L614.5,232.5 L604.5,222.5 " fill="#F0E68C" style="stroke: #A80036; stroke-width: 1.0;"/><text fill="#000000" font-family="sans-serif" font-size="13" lengthAdjust="spacingAndGlyphs" textLength="95" x="504.5" y="239.5669">right hand side</text><!--MD5=[b0ce6beb34f5191609a9e614e31fe7f5]
link baseof to version-banner--><path d="M651.5707,165.1055 C648.903,192.9834 643.0484,240.0385 631.5,279 C628.5262,289.033 624.112,299.6435 619.8775,308.7787 " fill="none" id="baseof-version-banner" style="stroke: #A80036; stroke-width: 1.0; stroke-dasharray: 7.0,7.0;"/><!--MD5=[a38b315daf7da027842c239a718591f6]
link baseof to breadcrumb--><path d="M666.925,165.3169 C687.3145,202.249 725.8594,272.0661 746.184,308.8805 " fill="none" id="baseof-breadcrumb" style="stroke: #A80036; stroke-width: 1.0; stroke-dasharray: 7.0,7.0;"/><!--MD5=[e8eab543d6f4742597d7f1c29432ff95]
link baseof to footer--><path d="M691.248,165.2249 C704.5755,174.1866 719.4784,184.6831 732.5,195 C779.5431,232.2717 830.2814,280.4744 859.3343,308.9325 " fill="none" id="baseof-footer" style="stroke: #A80036; stroke-width: 1.0; stroke-dasharray: 7.0,7.0;"/><!--MD5=[733155edf445472e87f36cdfb827a84a]
link baseof to scripts--><path d="M691.3107,150.853 C723.1215,159.9501 769.247,175.0628 806.5,195 C867.2299,227.5017 929.6609,278.8604 963.9265,308.9061 " fill="none" id="baseof-scripts" style="stroke: #A80036; stroke-width: 1.0; stroke-dasharray: 7.0,7.0;"/><!--MD5=[f1bb422e670955e9f08fd99450709411]
link sidebar to sidebar-tree--><path d="M336.7611,357.1906 C314.555,375.2538 284.3419,399.8301 262.1558,417.877 " fill="none" id="sidebar-sidebar-tree" style="stroke: #A80036; stroke-width: 1.0; stroke-dasharray: 7.0,7.0;"/><!--MD5=[3303d4cd1bc1c0942b0bd93ea29e7e3d]
link sidebar-tree to search-input--><path d="M194.5496,466.1906 C166.2119,484.2538 127.6564,508.8301 99.3444,526.877 " fill="none" id="sidebar-tree-search-input" style="stroke: #A80036; stroke-width: 1.0; stroke-dasharray: 7.0,7.0;"/><!--MD5=[bbf409d820ca8da7a9d147f52e153b62]
link sidebar-tree to navbar-lang-selector--><path d="M232.5,466.1906 C232.5,484.2538 232.5,508.8301 232.5,526.877 " fill="none" id="sidebar-tree-navbar-lang-selector" style="stroke: #A80036; stroke-width: 1.0; stroke-dasharray: 7.0,7.0;"/><!--MD5=[d3ed1169a728d25312c22723977c69ad]
link toc to page-meta-links--><path d="M498.1475,357.1906 C509.0849,375.2538 523.9659,399.8301 534.8934,417.877 " fill="none" id="toc-page-meta-links" style="stroke: #A80036; stroke-width: 1.0; stroke-dasharray: 7.0,7.0;"/><!--MD5=[1c54a128ccac9b1b0bda39723d6416c9]
link page-meta-links to post_edit_this--><path d="M517.9856,466.1906 C494.4538,484.2538 462.4369,508.8301 438.9263,526.877 " fill="none" id="page-meta-links-post_edit_this" style="stroke: #A80036; stroke-width: 1.0;"/><!--MD5=[e011e93e13e0e57f3087a84621ebb248]
link page-meta-links to post_create_issue--><path d="M555.2702,466.1906 C559.5789,484.2538 565.4411,508.8301 569.7459,526.877 " fill="none" id="page-meta-links-post_create_issue" style="stroke: #A80036; stroke-width: 1.0;"/><!--MD5=[3e3cbe6245d35971db640023ad535347]
link page-meta-links to post_create_project_issue--><path d="M600.7006,466.0555 C639.1314,484.1113 691.5337,508.7313 730.0297,526.8178 " fill="none" id="page-meta-links-post_create_project_issue" style="stroke: #A80036; stroke-width: 1.0;"/><!--MD5=[3842e4e8e85e634967f89f7ab604eef3]
link list to reading-time--><path d="M1247.7557,165.3169 C1219.2872,202.249 1165.4699,272.0661 1137.0921,308.8805 " fill="none" id="list-reading-time" style="stroke: #A80036; stroke-width: 1.0; stroke-dasharray: 7.0,7.0;"/><!--MD5=[e2cb979c89c62e4147e650f9130052da]
link list to section-index--><path d="M1266.5,165.3169 C1266.5,202.249 1266.5,272.0661 1266.5,308.8805 " fill="none" id="list-section-index" style="stroke: #A80036; stroke-width: 1.0; stroke-dasharray: 7.0,7.0;"/><!--MD5=[9adb80b48f54cc1299b80e4501c61d53]
link list to feedback--><path d="M1282.3115,165.0397 C1300.7759,192.8564 1332.4951,239.8549 1361.5,279 C1368.8487,288.9178 1377.2449,299.5965 1384.656,308.8182 " fill="none" id="list-feedback" style="stroke: #A80036; stroke-width: 1.0; stroke-dasharray: 7.0,7.0;"/><path d="M1366.5,200 L1366.5,270 L1586.5,270 L1586.5,210 L1576.5,200 L1366.5,200 " fill="#F0E68C" filter="url(#flkq9iiikmjc2)" style="stroke: #A80036; stroke-width: 1.0;"/><path d="M1576.5,200 L1576.5,210 L1586.5,210 L1576.5,200 " fill="#F0E68C" style="stroke: #A80036; stroke-width: 1.0;"/><text fill="#000000" font-family="sans-serif" font-size="13" lengthAdjust="spacingAndGlyphs" textLength="199" x="1372.5" y="217.0669">rather than editing the list.html</text><text fill="#000000" font-family="sans-serif" font-size="13" lengthAdjust="spacingAndGlyphs" textLength="117" x="1372.5" y="232.1997">partial, simply add</text><text fill="#000000" font-family="sans-serif" font-size="13" lengthAdjust="spacingAndGlyphs" textLength="126" x="1372.5" y="247.3325">hide_feedback: true</text><text fill="#000000" font-family="sans-serif" font-size="13" lengthAdjust="spacingAndGlyphs" textLength="179" x="1372.5" y="262.4653">to the header of the .md file</text><!--MD5=[af45ac8b4171940a05062f190b50a7ae]
link list to disqus-comment--><path d="M1291.6513,157.2527 C1297.3296,160.2841 1303.4675,163.0937 1309.5,165 C1371.2772,184.522 1552.4452,150.4649 1599.5,195 C1630.2474,224.101 1629.2994,277.6486 1625.5795,308.7939 " fill="none" id="list-disqus-comment" style="stroke: #A80036; stroke-width: 1.0; stroke-dasharray: 7.0,7.0;"/><!--MD5=[060efbf63a9c02b7b30cbad20b8e5510]
@startuml
skinparam backgroundcolor Ivory/Azure

"/docs or /project"..baseof
"/docs or /project".."list"
"/docs or /project".."single"

baseof..head
baseof..navbar
baseof..sidebar
note right on link #Khaki : left hand side
baseof..toc
note right on link #Khaki : right hand side
baseof.."version-banner"
baseof..breadcrumb
baseof..footer
baseof..scripts


"sidebar".."sidebar-tree"
"sidebar-tree".."search-input"
"sidebar-tree".."navbar-lang-selector"

toc.."page-meta-links"
"page-meta-links"- -"post_edit_this"
"page-meta-links"- -"post_create_issue"
"page-meta-links"- -"post_create_project_issue"

list.."reading-time"
list.."section-index"
list.."feedback"
note right on link #Khaki
rather than editing the list.html
partial, simply add
hide_feedback: true
to the header of the .md file
end note

list.."disqus-comment"
@enduml

PlantUML version 1.2020.08(Sun Apr 26 14:08:22 UTC 2020)
(GPL source distribution)
Java Runtime: OpenJDK Runtime Environment
JVM: OpenJDK 64-Bit Server VM
Java Version: 1.8.0_252-heroku-b09
Operating System: Linux
Default Encoding: UTF-8
Language: en
Country: US
--></g></svg>